<?xml version="1.0" standalone="no"?>
<!DOCTYPE svg PUBLIC "-//W3C//DTD SVG 20010904//EN"
 "http://www.w3.org/TR/2001/REC-SVG-20010904/DTD/svg10.dtd">
<svg version="1.0" xmlns="http://www.w3.org/2000/svg"
 width="256.000000pt" height="256.000000pt" viewBox="0 0 256.000000 256.000000"
 preserveAspectRatio="xMidYMid meet">

<g transform="translate(0.000000,256.000000) scale(0.100000,-0.100000)"
fill="#000000" stroke="none">
<path d="M1669 2082 c-112 -114 -334 -339 -492 -501 -158 -161 -290 -291 -292
-289 -2 2 14 93 36 202 23 109 39 199 37 202 -2 2 -49 -16 -104 -40 -173 -75
-499 -219 -502 -222 -2 -1 20 -82 49 -180 28 -99 55 -192 59 -209 21 -81 213
-752 219 -763 5 -8 56 66 136 195 160 259 380 611 451 722 30 46 54 77 54 69
0 -14 -189 -926 -205 -990 l-7 -28 440 0 439 0 16 43 c9 23 50 150 92 282 42
132 86 264 96 294 11 29 18 56 15 58 -2 2 -147 -57 -321 -132 -174 -75 -319
-134 -322 -132 -2 3 68 368 157 812 89 444 159 809 157 811 -2 2 -95 -90 -208
-204z"/>
</g>
</svg>